<?xml version="1.0" encoding="UTF-8" standalone="no"?>
<!-- Created with Inkscape (http://www.inkscape.org/) -->

<svg
   version="1.1"
   id="svg1"
   width="80"
   height="80"
   viewBox="0 0 80 80"
   xmlns="http://www.w3.org/2000/svg"
   xmlns:svg="http://www.w3.org/2000/svg">
  <defs
     id="defs1" />
  <g
     id="g1">
    <path
       style="display:inline;fill:#000000;stroke-width:1.00919"
       d="M 28.507241,78.412555 C 16.264771,74.061554 8.7063405,67.368873 3.3534951,56.139943 L 0.17676768,49.475964 V 39.865549 30.255133 L 3.9573301,22.65212 C 8.5106701,13.494987 14.372373,7.7910085 23.783408,3.3595163 l 6.761599,-3.18391921 h 9.616609 9.61661 L 56.539824,3.3595163 C 65.950858,7.7910085 71.812562,13.494987 76.365902,22.65212 l 3.780563,7.603013 v 9.662596 9.662597 l -3.780563,7.603014 c -4.558414,9.167336 -10.443921,14.889822 -19.780131,19.23224 -5.387423,2.505777 -8.326408,3.1905 -14.859796,3.462026 -5.966533,0.247969 -9.501007,-0.143762 -13.218734,-1.465051 z M 46.100275,62.924576 c 3.626547,-1.497976 5.196362,-2.71378 5.196362,-4.02452 0,-1.032965 -0.443337,-1.878117 -0.985195,-1.878117 -0.541856,0 -3.047236,0.995736 -5.567511,2.212747 L 40.161616,61.447432 35.5793,59.234686 c -2.520273,-1.217011 -5.025653,-2.212747 -5.56751,-2.212747 -0.541857,0 -0.985195,0.848984 -0.985195,1.886632 0,1.291342 1.51717,2.535507 4.808305,3.943085 2.644567,1.131048 5.316963,2.093099 5.938657,2.137887 0.621695,0.04479 3.468718,-0.884446 6.326718,-2.064967 z m 0.02877,-6.352206 4.887853,-2.461827 0.558698,-7.347939 0.5587,-7.34794 -1.969021,-2.012259 -1.969022,-2.01226 -4.017319,2.293835 -4.017316,2.293835 -4.01732,-2.293835 -4.017321,-2.293835 -1.96902,2.01226 -1.969021,2.012259 0.558539,7.34573 0.558539,7.345729 4.668596,2.417191 c 2.567729,1.329454 5.253144,2.438272 5.967592,2.464038 0.714447,0.02576 3.498528,-1.060975 6.186848,-2.414982 z M 18.585538,39.742347 c 1.288573,-1.203203 2.342859,-2.787858 2.342859,-3.521454 0,-1.67583 -3.232597,-1.742905 -4.884183,-0.101346 -0.952289,0.94651 -1.678552,0.960249 -3.130144,0.05922 -3.0979382,-1.92295 -3.3526412,-0.133229 -0.414792,2.91461 1.503836,1.560138 2.961306,2.836615 3.238824,2.836615 0.277516,0 1.558862,-0.984438 2.847436,-2.187642 z m 49.238416,-0.648973 c 2.93785,-3.047839 2.683146,-4.83756 -0.414791,-2.91461 -1.451594,0.901032 -2.177856,0.887293 -3.130145,-0.05922 -1.584756,-1.575131 -4.884184,-1.601917 -4.884184,-0.03965 0,1.265727 3.956158,5.850093 5.04844,5.850093 0.355538,0 1.876844,-1.276477 3.38068,-2.836615 z M 30.038869,34.887081 c 0.769826,-1.429701 0.769826,-2.594822 0,-4.024521 -1.36959,-2.54357 -4.230305,-2.580386 -6.503578,-0.0837 -1.400872,1.538551 -1.527754,2.352426 -0.627411,4.02452 1.459653,2.710834 5.689671,2.760482 7.130989,0.0837 z M 57.43629,34.764498 c 0.94514,-1.755291 0.792654,-2.48953 -0.857686,-4.129852 -3.562838,-3.54121 -8.611087,-0.05035 -6.254995,4.32532 1.415137,2.628159 5.655032,2.51164 7.112681,-0.195468 z M 45.908112,32.204519 c 3.910424,-2.676864 5.388525,-4.332784 5.388525,-6.036781 0,-1.291448 -0.172131,-2.348088 -0.382514,-2.348088 -0.210384,0 -2.017846,0.679138 -4.016585,1.509196 -4.62688,1.921498 -10.476787,1.918943 -14.190624,-0.0062 -1.594705,-0.826607 -3.075157,-1.502957 -3.289892,-1.502957 -0.214734,0 -0.390427,1.049943 -0.390427,2.333208 0,1.674737 1.499824,3.37592 5.314442,6.027934 2.922943,2.032101 5.508866,3.698707 5.746495,3.703573 0.237631,0.0048 2.856892,-1.651066 5.82058,-3.679846 z M 19.916123,31.365625 c 1.888685,-1.9368 4.255663,-3.521454 5.259948,-3.521454 2.375568,0 2.379747,-3.121866 0.0081,-6.032976 l -1.817898,-2.231382 -5.963815,5.60539 -5.963816,5.60539 1.864955,2.048243 c 1.025704,1.126534 2.160499,2.048245 2.521745,2.048245 0.361245,0 2.202098,-1.584656 4.090783,-3.521456 z m 47.103535,1.473211 1.864955,-2.048243 -5.963814,-5.60539 -5.963815,-5.60539 -1.817899,2.231382 c -2.37167,2.91111 -2.367491,6.032976 0.0081,6.032976 1.004287,0 3.371264,1.584654 5.259949,3.521454 1.888685,1.9368 3.729537,3.521456 4.090783,3.521456 0.361246,0 1.49604,-0.921711 2.521766,-2.048245 z M 39.655479,20.438965 c 3.340506,0 7.098576,0.360701 8.351265,0.801559 1.885853,0.663686 2.277618,0.445067 2.277618,-1.270996 0,-3.343429 -3.801487,-5.205046 -10.628883,-5.205046 -6.827396,0 -10.628884,1.861617 -10.628884,5.205046 0,1.716063 0.391765,1.934682 2.277618,1.270996 1.25269,-0.440858 5.01076,-0.801559 8.351266,-0.801559 z"
       id="path1" />
    <path
       style="fill:#ffffff;fill-rule:evenodd;stroke:#ffffff;stroke-width:0.161616;stroke-linecap:round;stroke-linejoin:bevel;paint-order:fill markers stroke"
       d="M 38.707071,58.57983 C 37.01914,58.018893 29.561084,54.210331 29.410955,53.832637 29.33713,53.646909 29.049074,50.382579 28.77083,46.578571 l -0.505898,-6.916378 0.64349,-0.760389 c 0.353919,-0.418215 1.214716,-1.324638 1.912881,-2.014275 l 1.269391,-1.253885 3.938474,2.25561 c 3.74885,2.14701 3.958705,2.245112 4.358693,2.037582 0.231121,-0.119916 2.017466,-1.135466 3.969655,-2.25678 l 3.549435,-2.038752 1.270568,1.255055 c 0.698814,0.69028 1.560374,1.59751 1.91458,2.016067 l 0.644011,0.761011 -0.502799,6.834948 c -0.27654,3.759222 -0.536841,6.999016 -0.578446,7.199543 -0.122572,0.590769 -8.701062,4.769658 -10.493249,5.111638 -0.288735,0.0551 -0.877075,-0.03783 -1.454545,-0.229736 z"
       id="path2" />
    <path
       style="fill:#ffffff;fill-rule:evenodd;stroke:#ffffff;stroke-width:0.161616;stroke-linecap:round;stroke-linejoin:bevel;paint-order:fill markers stroke"
       d="m 37.979798,64.338727 c -4.854979,-1.7175 -7.800443,-3.264355 -8.580615,-4.50624 -0.60244,-0.95897 -0.158089,-2.701174 0.688938,-2.701174 0.509633,0 3.348911,1.194844 6.708098,2.822947 l 3.206592,1.554144 3.311726,-1.602051 c 3.43669,-1.662503 6.082176,-2.77504 6.598728,-2.77504 0.844647,0 1.289329,1.668767 0.699147,2.623701 -0.628011,1.016146 -2.830217,2.280674 -6.322338,3.630348 -1.622019,0.626896 -4.372998,1.510181 -4.67179,1.500019 -0.05672,-0.0019 -0.794042,-0.247923 -1.638486,-0.546654 z"
       id="path3" />
    <path
       style="fill:#ffffff;fill-rule:evenodd;stroke:#ffffff;stroke-width:0.161616;stroke-linecap:round;stroke-linejoin:bevel;paint-order:fill markers stroke"
       d="m 25.404443,36.698132 c -1.387783,-0.448896 -2.387519,-1.473808 -2.809208,-2.87995 -0.261059,-0.870514 0.01975,-1.640487 0.998974,-2.73915 1.40115,-1.572055 3.235767,-2.248583 4.577482,-1.687978 1.052592,0.4398 2.01999,1.795407 2.272328,3.184194 0.129574,0.713127 -0.21341,1.909539 -0.783079,2.73157 -0.840535,1.212894 -2.813926,1.857933 -4.256497,1.391314 z"
       id="path4" />
    <path
       style="fill:#ffffff;fill-rule:evenodd;stroke:#ffffff;stroke-width:0.161616;stroke-linecap:round;stroke-linejoin:bevel;paint-order:fill markers stroke"
       d="m 15.085624,41.319239 c -2.114189,-1.677083 -4.691939,-4.948815 -4.343411,-5.512745 0.205798,-0.332988 0.964338,-0.160825 2.144013,0.486618 1.410768,0.774274 2.260155,0.869345 2.928197,0.32775 1.506238,-1.221138 2.590688,-1.619651 3.850939,-1.41514 1.762207,0.285967 1.523027,1.812487 -0.642878,4.103051 -0.731615,0.773723 -2.410134,2.201026 -2.967163,2.523082 -0.102907,0.0595 -0.539271,-0.17118 -0.969697,-0.512616 z"
       id="path5" />
    <path
       style="fill:#ffffff;fill-rule:evenodd;stroke:#ffffff;stroke-width:0.161616;stroke-linecap:round;stroke-linejoin:bevel;paint-order:fill markers stroke"
       d="m 15.01314,34.285732 c -0.39056,-0.298404 -1.285019,-1.176019 -1.987687,-1.950257 -1.245205,-1.372035 -1.269776,-1.414986 -0.969697,-1.695021 1.637717,-1.528328 9.72754,-9.156439 10.430485,-9.835184 l 0.910484,-0.879138 1.156291,1.430873 c 1.506776,1.86459 2.162047,3.182647 2.247217,4.520201 0.06114,0.960167 0.03621,1.04859 -0.425922,1.510721 -0.31367,0.31367 -0.655784,0.491431 -0.947738,0.49244 -1.153112,0.004 -3.05224,1.228546 -5.386169,3.473012 -2.539854,2.442498 -3.74155,3.474904 -4.044705,3.474904 -0.149847,0 -0.591999,-0.244148 -0.982559,-0.542551 z"
       id="path6" />
    <path
       style="fill:#ffffff;fill-rule:evenodd;stroke:#ffffff;stroke-width:0.161616;stroke-linecap:round;stroke-linejoin:bevel;paint-order:fill markers stroke"
       d="m 29.315082,21.32816 c -0.404411,-0.617209 -0.222107,-2.156409 0.367926,-3.106414 1.193925,-1.922327 3.990713,-2.894518 8.806572,-3.061252 5.30304,-0.183601 8.669276,0.6464 10.391808,2.56227 0.785049,0.873164 1.144753,1.907383 1.010785,2.906199 -0.155441,1.1589 -0.318198,1.211861 -2.241287,0.729325 -2.442833,-0.612948 -5.200071,-0.813974 -9.570814,-0.697795 -3.702664,0.09842 -5.732121,0.326192 -7.292193,0.81842 -1.069114,0.337322 -1.159029,0.328118 -1.472797,-0.150753 z"
       id="path7" />
    <path
       style="fill:#ffffff;fill-rule:evenodd;stroke:#ffffff;stroke-width:0.161616;stroke-linecap:round;stroke-linejoin:bevel;paint-order:fill markers stroke"
       d="m 62.779736,33.988293 c -0.528855,-0.461994 -1.761554,-1.611235 -2.739332,-2.553869 -0.977778,-0.942633 -2.122573,-1.949496 -2.54399,-2.237473 -1.052518,-0.719244 -2.374483,-1.314689 -2.922987,-1.316584 -0.291954,-0.001 -0.634068,-0.17877 -0.947738,-0.49244 -0.462131,-0.462131 -0.48706,-0.550554 -0.425922,-1.510721 0.08517,-1.337554 0.740441,-2.655611 2.247217,-4.520201 l 1.156291,-1.430873 0.910484,0.877669 c 0.709367,0.683802 8.931813,8.43813 10.430485,9.836661 0.300078,0.280027 0.275503,0.322983 -0.969697,1.695013 -1.377516,1.517823 -2.53739,2.492808 -2.965526,2.492808 -0.147252,0 -0.70043,-0.377996 -1.229285,-0.83999 z"
       id="path8" />
    <path
       style="fill:#ffffff;fill-rule:evenodd;stroke:#ffffff;stroke-width:0.161616;stroke-linecap:round;stroke-linejoin:bevel;paint-order:fill markers stroke"
       d="m 52.334635,36.70384 c -1.067241,-0.287369 -1.814368,-0.9198 -2.328825,-1.971313 -1.278044,-2.612227 0.298029,-5.293411 3.098517,-5.271137 1.107091,0.0088 2.114364,0.510334 3.154213,1.570508 1.408618,1.43615 1.553541,1.984504 0.896555,3.392344 -0.496328,1.063571 -1.484796,1.937609 -2.548536,2.253506 -0.994213,0.295249 -1.260941,0.298313 -2.271924,0.02609 z"
       id="path9" />
    <path
       style="fill:#ffffff;fill-rule:evenodd;stroke:#ffffff;stroke-width:0.161616;stroke-linecap:round;stroke-linejoin:bevel;paint-order:fill markers stroke"
       d="m 63.434343,41.640125 c -0.721722,-0.44368 -2.704438,-2.596979 -3.54508,-3.850081 -0.933634,-1.391723 -0.96992,-2.017099 -0.142312,-2.452718 0.942368,-0.496024 2.772761,-0.06101 3.995794,0.949645 1.10536,0.913417 1.72474,0.909677 3.419838,-0.02065 1.135814,-0.623371 1.891615,-0.789245 2.095204,-0.45983 0.230412,0.372815 -0.809552,1.999209 -2.22525,3.480054 -1.207409,1.262972 -2.810094,2.654735 -3.05419,2.652242 -0.03254,-3.32e-4 -0.277337,-0.134732 -0.544004,-0.298665 z"
       id="path10" />
    <path
       style="fill:#ffffff;fill-rule:evenodd;stroke:#ffffff;stroke-width:0.161616;stroke-linecap:round;stroke-linejoin:bevel;paint-order:fill markers stroke"
       d="m 37.234227,33.999811 c -6.169259,-4.064732 -8.13254,-5.989803 -8.13799,-7.979609 -0.0027,-0.990622 0.18084,-1.878152 0.406323,-1.964678 0.111747,-0.04288 1.210295,0.395389 2.441218,0.973933 2.543969,1.195689 3.580624,1.499464 5.857304,1.716388 3.232365,0.307983 6.200678,-0.194159 10.045244,-1.699329 2.820221,-1.104133 3.092438,-1.144534 3.239972,-0.480859 0.643342,2.894023 -0.635025,4.482265 -7.045894,8.75382 -2.35891,1.571738 -3.819424,2.478503 -3.992094,2.478503 -0.0467,0 -1.313036,-0.809176 -2.814083,-1.798169 z"
       id="path11" />
  </g>
</svg>
