<?xml version="1.0" encoding="UTF-8" standalone="no"?>
<!-- Created with Inkscape (http://www.inkscape.org/) -->

<svg
   width="34560"
   height="34560"
   version="1.1"
   viewBox="0 0 34560 34560"
   xml:space="preserve"
   id="svg1"
   sodipodi:docname="Icon_Sands_of_Eon.svg"
   inkscape:version="1.4.2 (f4327f4, 2025-05-13)"
   xmlns:inkscape="http://www.inkscape.org/namespaces/inkscape"
   xmlns:sodipodi="http://sodipodi.sourceforge.net/DTD/sodipodi-0.dtd"
   xmlns="http://www.w3.org/2000/svg"
   xmlns:svg="http://www.w3.org/2000/svg"><defs
     id="defs1" /><sodipodi:namedview
     id="namedview1"
     pagecolor="#ffffff"
     bordercolor="#000000"
     borderopacity="0.25"
     inkscape:showpageshadow="2"
     inkscape:pageopacity="0.0"
     inkscape:pagecheckerboard="0"
     inkscape:deskcolor="#d1d1d1"
     inkscape:zoom="0.014322917"
     inkscape:cx="17280"
     inkscape:cy="17280"
     inkscape:window-width="1366"
     inkscape:window-height="697"
     inkscape:window-x="-8"
     inkscape:window-y="-8"
     inkscape:window-maximized="1"
     inkscape:current-layer="svg1"
     inkscape:export-bgcolor="#ffffffff" /><g
     inkscape:groupmode="layer"
     id="layer2"
     inkscape:label="Layer 2"
     style="fill:#ffffff" /><path
     d="m8203.5 31483c-902.06-412.38-1145.8-953.72-1090-2420.7l44.706-1175.7 766.79-576.67c616.03-463.29 785.25-690.1 860.67-1153.6 349-2144.9 490.84-2749.4 776.89-3310.8 661.35-1298.1 1558.7-2433.8 2473-3129.9 1369.2-1042.5 2407.2-2027.1 2407.2-2283.3 0-394.14-590.6-1067.4-1418.2-1616.7-1402.7-930.94-2920.2-2528.6-3445.9-3627.9-607.17-1269.6-934.26-2896.8-689.87-3432.1 154.79-339.04 127.71-414.12-241.31-669.18-228.61-158.01-536.04-330.63-683.16-383.59-543.93-195.79-881.82-1032.7-877.24-2172.7 4.3217-1075.7 82.702-1275.8 707.43-1805.7 301.81-256 955.05-281.04 9352.4-358.48l9027.9-83.251 651.78 474.22c698.93 508.53 697.37 503.88 671.21 2002.8-20.171 1155.7-268 1588.5-1184.1 2068-480.45 251.45-590.45 388.26-555.97 691.48 148.39 1305.2-141.46 2651.5-847.54 3936.7-446.19 812.17-2465.4 2848.5-3179.5 3206.5-660.58 331.14-1613.5 1282.2-1613.5 1610.3 0 336.61 1339.4 1699.4 2323.8 2364.3 1203.8 813.14 2791.3 3226 3042.2 4623.8 455.96 2540.5 482.48 2622.5 920.74 2848.7 233.5 120.5 613.41 443.1 844.24 716.87 389.84 462.36 414.77 574.36 350.37 1574.2-77.681 1206.2-263.36 1599.6-950.97 2015.2-444.56 268.67-988.16 287.89-9137.5 323.16-8257.7 35.739-8694.9 23.72-9306.4-255.81zm18137-1150.1c304.4-415.56 287.01-1827.2-25.694-2086.2-133.82-110.84-527.78-239.8-875.47-286.58l-632.16-85.053-248.7-1913.1c-268.46-2065.1-383.15-2363.2-1580.5-4107.5-531.84-774.81-1022.3-1283.6-1581.5-1640.6-445.84-284.63-1192.1-913.75-1658.4-1398.1-1435-1490.4-1235.6-2040.6 1549.3-4276 2138.4-1716.4 2799.1-2727.2 3161.5-4835.9 150.35-875 143.3-1073.4-44.596-1255.7-184.21-178.73-1427.6-224.46-7124.3-262.03-3795.6-25.033-6987.4 8.2236-7092.8 73.904-427.98 266.61-114.54 2071.7 633.12 3646.2 468.74 987.08 942.93 1493.2 2494.6 2662.6 1628 1226.9 2354.9 2109.4 2354.9 2858.9 0 542.53-99.755 701.41-958.49 1526.6-527.17 506.59-1254.6 1107.7-1616.6 1335.7-772.46 486.67-1845.8 1851.7-2474.3 3146.6-313.46 645.86-498.09 1349.6-622.34 2372.3-269.13 2215-241.46 2142.7-819.65 2142.7-852.12 0-1099.9 302.22-1099.9 1341.6 0 1550.4-830.01 1426.5 9235.7 1378.6 8517.1-40.488 8816-51.712 9026.4-338.96zm-14351-2923c0-1183.7 893.28-2154.4 3060.3-3325.6 528.52-285.64 932.28-657.01 1238.9-1139.6l454.89-715.84v-3337.1c0-1835.4-55.236-3337.1-122.75-3337.1-189.65 0-1855.1-1521.1-2037.2-1860.6-320.42-597.49 1.585-688.02 2560.2-719.77 1319.5-16.376 2528.3 11.174 2686.3 61.222 622.81 197.27 184 913.58-1291.7 2108.5l-721.43 584.18v6500.7l447.06 703.51c341.41 537.26 696.06 834.09 1500.8 1256.1 1923.8 1008.9 2806.3 2021.9 2806.3 3221.3v541.77h-10582zm8940.5-626.22c266.01-265.47-309.76-764.57-1886-1634.9-295.22-163-795.75-528.8-1112.3-812.9-316.55-284.1-603.32-516.54-637.26-516.54s-357.36 246.5-718.69 547.77c-361.33 301.27-971.71 709.23-1356.4 906.58-957.11 491-1774.5 1203.5-1636.4 1426.4 80.443 129.9 1108.1 180.21 3680.9 180.21 1963.1 0 3612.9-43.492 3666.2-96.648zm-2997.9-12299c274.13-166.8 498.42-338.72 498.42-382.05 0-43.325-483.08-78.774-1073.5-78.774s-1073.5 56.377-1073.5 125.28c0 106.74 844.6 602.09 1073.5 629.6 42.174 5.068 300.97-127.26 575.1-294.06zm8086.1-7680.3c216.86-98.608 435.67-343.82 486.24-544.91 131.48-522.78-39.799-1592.6-279.38-1745-111.83-71.144-4205.3-112.87-9096.7-92.729l-8893.3 36.625-133.08 727.06c-167.51 915.16-49.456 1396.1 395.21 1610 509.59 245.09 16983 253.55 17521 8.9922z"
     id="path1"
     style="fill:#000000;opacity:1" /></svg>
